<svg width="145" height="61" viewBox="0 0 145 61" fill="none" xmlns="http://www.w3.org/2000/svg">
<line x1="73.7465" y1="56.5476" x2="73.7465" y2="5.90475" stroke="#1F305E" stroke-width="6" stroke-linecap="round"/>
<rect x="-0.00107965" y="-1.20414" width="13.3095" height="65.5526" rx="6.65476" transform="matrix(0.706527 0.707687 -0.705256 0.708952 134.932 3.62665)" fill="#32CD32" stroke="black" stroke-width="3"/>
<rect x="-1.20002" y="-0.0010759" width="13.3095" height="65.5526" rx="6.65476" transform="matrix(0.706527 -0.707687 0.705256 0.708952 90.5636 12.4942)" fill="#32CD32" stroke="black" stroke-width="3"/>
<path d="M12.4393 31C12.4393 21.8538 19.8538 14.4393 29 14.4393C38.1462 14.4393 45.5607 21.8538 45.5607 31C45.5607 40.1462 38.1462 47.5607 29 47.5607C19.8538 47.5607 12.4393 40.1462 12.4393 31ZM29 5.15C14.7234 5.15 3.15 16.7234 3.15 31C3.15 45.2766 14.7234 56.85 29 56.85C43.2766 56.85 54.85 45.2766 54.85 31C54.85 16.7234 43.2766 5.15 29 5.15Z" fill="#FD6687" stroke="black" stroke-width="3"/>
</svg>
